<svg width="84" height="20" viewBox="0 0 84 20" fill="none" xmlns="http://www.w3.org/2000/svg">
<g clip-path="url(#clip0_30_78)">
<path d="M0.0169653 0C27.9925 0 55.968 0 83.9435 0C83.9463 0.15145 83.952 0.305758 83.952 0.457208C83.952 6.29804 83.9491 12.1389 83.952 17.9826C83.952 18.5655 83.9011 19.1485 83.9915 19.7314C84.0141 19.8714 83.935 20.0029 83.7428 19.9943C83.5082 19.9829 83.2736 19.98 83.039 19.98C77.4541 19.98 71.8692 19.9743 66.2843 19.9743C54.8572 19.9743 43.4273 19.9743 32.0003 19.9743C21.4861 19.9743 10.9748 19.9829 0.460707 19.9971C0.127194 19.9971 -0.00564575 19.9429 -0.00564575 19.5628C0.0141389 13.0447 0.0141389 6.52093 0.0169653 0ZM41.9407 18.5741C54.7752 18.5741 67.6127 18.5741 80.4473 18.5741C81.0097 18.5741 81.575 18.5655 82.1374 18.5827C82.3946 18.5884 82.4879 18.5084 82.4879 18.2426C82.4851 17.4111 82.5133 16.5795 82.5162 15.7451C82.519 11.2416 82.5162 6.73811 82.5162 2.23175C82.5162 1.53451 82.1666 1.18588 81.4676 1.18588C62.1917 1.18588 42.9129 1.18588 23.637 1.18588C16.3732 1.18588 9.11226 1.18588 1.84846 1.17731C1.59409 1.17731 1.46972 1.22017 1.46972 1.51736C1.48103 6.87813 1.48103 12.2389 1.48103 17.5997C1.48103 18.2455 1.80324 18.5684 2.44765 18.5684C15.6129 18.5684 28.7754 18.5684 41.9407 18.5684V18.5741Z" fill="white"/>
<path d="M75.4982 6.4752C78.0448 6.50664 79.8396 8.19545 79.865 10.6844C79.8933 13.2676 77.96 14.9707 75.5802 14.9793C73.2315 14.9878 71.2785 13.2447 71.2643 10.7272C71.253 8.35833 73.1891 6.4752 75.4954 6.4752H75.4982ZM78.3105 10.7301C78.4151 9.28132 76.9906 7.98399 75.6311 7.94399C74.3733 7.90398 72.7793 9.26417 72.7962 10.7644C72.8132 12.316 74.2942 13.4934 75.5689 13.5048C76.7984 13.5162 78.4179 12.4161 78.3105 10.7301Z" fill="white"/>
<path d="M5.37011 10.6615C5.37011 9.41848 5.37011 8.17545 5.37294 6.93241C5.37294 6.78096 5.28815 6.56665 5.49447 6.49807C5.69515 6.43234 5.89582 6.45806 6.07105 6.63809C6.85961 7.45535 7.67926 8.24689 8.43673 9.09558C9.03593 9.76996 9.66338 10.4158 10.288 11.0673C10.418 11.2016 10.4774 11.3788 10.6272 11.5045C10.8307 11.6759 10.8816 11.5531 10.9268 11.3902C10.9466 11.313 10.9324 11.2273 10.9324 11.1444C10.9324 9.78425 10.9324 8.42406 10.9324 7.06386C10.9324 6.58665 10.972 6.5495 11.461 6.5495C12.4756 6.5495 12.47 6.5495 12.4672 7.58679C12.4615 9.87283 12.4672 12.1617 12.4643 14.4478C12.4643 14.6364 12.535 14.8793 12.2976 14.9764C12.0262 15.0879 11.7747 14.8964 11.6645 14.725C11.1896 13.9991 10.5226 13.4562 9.94319 12.8361C9.11507 11.9474 8.32651 11.0216 7.4899 10.1414C7.32879 9.96999 7.15073 9.68424 6.93027 9.74996C6.73808 9.80997 6.86527 10.1272 6.86527 10.3243C6.85396 11.6274 6.85679 12.9276 6.85961 14.2306C6.85961 14.8164 6.80026 14.8821 6.22368 14.8507C6.11062 14.845 5.99757 14.8021 5.88451 14.785C5.37577 14.7192 5.37577 14.7192 5.37577 14.2135C5.37577 13.0276 5.37577 11.8445 5.37577 10.6587L5.37011 10.6615Z" fill="white"/>
<path d="M23.5324 10.5587C23.5324 9.33848 23.5437 8.1183 23.5268 6.89813C23.5211 6.55808 23.6314 6.45235 23.9705 6.45521C25.4487 6.47236 26.9269 6.4695 28.4051 6.45521C28.7188 6.45235 28.8319 6.57523 28.8121 6.86098C28.7923 7.16103 28.9139 7.49536 28.733 7.7554C28.5153 8.06687 28.1903 7.80112 27.9162 7.80969C27.0711 7.83255 26.226 7.82398 25.3837 7.80969C25.1096 7.80397 25.0078 7.90113 25.0191 8.17831C25.0361 8.60123 25.0332 9.02415 25.0191 9.44421C25.0106 9.73854 25.1096 9.85855 25.4261 9.84998C26.2458 9.82998 27.0682 9.84712 27.8907 9.83569C28.114 9.83284 28.2101 9.89284 28.196 10.13C28.179 10.4101 28.179 10.693 28.196 10.973C28.2101 11.213 28.1083 11.2616 27.8851 11.2559C27.0654 11.2388 26.2429 11.253 25.4205 11.233C25.1237 11.2273 24.9965 11.3045 25.0163 11.6245C25.0417 12.056 25.0389 12.4932 25.0163 12.9247C24.9993 13.2533 25.0954 13.3791 25.4459 13.3676C26.4295 13.3419 27.4159 13.3676 28.4023 13.3505C28.7188 13.3448 28.8206 13.4676 28.8178 13.7563C28.798 14.8621 28.9845 14.6707 27.9331 14.6792C26.5962 14.6935 25.2594 14.6735 23.9225 14.6878C23.6031 14.6907 23.5268 14.5735 23.5296 14.2763C23.5437 13.0333 23.5353 11.7903 23.5353 10.5472L23.5324 10.5587Z" fill="white"/>
<path d="M42.5766 14.9336C41.6241 14.9679 40.8214 14.7221 40.1176 14.1592C39.9339 14.0134 39.9113 13.8563 39.9904 13.6362C40.0724 13.4105 40.2165 13.2276 40.3324 13.0276C40.4314 12.8561 40.6235 12.8533 40.7988 12.9504C41.0956 13.1162 41.3923 13.2762 41.6834 13.4534C42.0735 13.6905 42.4833 13.7163 42.9129 13.5877C43.3086 13.4705 43.5997 13.2505 43.6393 12.8018C43.6732 12.4104 43.5149 12.096 43.2125 11.8674C42.8847 11.6188 42.5257 11.4245 42.1441 11.2645C41.3386 10.9273 40.5444 10.5501 40.1402 9.71282C39.6315 8.66696 39.9537 7.29248 41.1182 6.77526C42.3816 6.21232 43.6025 6.45521 44.7698 7.09816C45.1627 7.31534 45.1768 7.49822 44.8914 7.84113C44.8179 7.92971 44.7557 8.02973 44.6935 8.12688C44.4165 8.54694 44.3996 8.55837 43.9502 8.30977C43.5828 8.10688 43.2069 7.91828 42.7942 7.84398C42.3816 7.76969 41.983 7.78112 41.6665 8.13831C41.3443 8.50408 41.3358 8.84698 41.6495 9.21847C42.048 9.68996 42.602 9.90714 43.1419 10.1272C43.7523 10.3758 44.3544 10.6415 44.8009 11.1359C45.8043 12.2418 45.4934 14.1877 43.7608 14.785C43.3538 14.925 42.9384 14.9479 42.5738 14.9364L42.5766 14.9336Z" fill="white"/>
<path d="M59.7383 11.2816C59.7383 12.3018 59.7299 13.3219 59.744 14.3421C59.7468 14.6192 59.6649 14.7221 59.3851 14.6964C59.142 14.6735 58.8904 14.6764 58.6474 14.7021C58.3139 14.7364 58.2291 14.5964 58.2319 14.2792C58.2432 12.3075 58.2404 10.3386 58.2404 8.36691C58.2404 7.82969 58.2404 7.82683 57.6892 7.82398C57.3359 7.82398 56.9855 7.82683 56.6322 7.82969C56.5502 7.82969 56.4513 7.85541 56.3891 7.82112C55.9256 7.5668 56.2252 7.12959 56.163 6.77811C56.1262 6.57523 56.2647 6.46092 56.488 6.46378C58.1669 6.46664 59.8429 6.4695 61.5218 6.46378C61.6886 6.46378 61.8044 6.52951 61.8214 6.69239C61.8497 6.98386 61.8723 7.27818 61.8157 7.56965C61.7762 7.78397 61.6829 7.89827 61.4031 7.86112C60.965 7.80397 60.5128 7.83255 60.069 7.81826C59.8062 7.80969 59.7327 7.93256 59.7355 8.18403C59.7468 9.2156 59.7412 10.25 59.7412 11.2816H59.7383Z" fill="white"/>
<path d="M50.2983 10.8387C50.2983 9.1956 50.2983 7.55537 50.2983 5.91228C50.2983 5.46364 50.3011 5.46364 50.7505 5.48079C50.7731 5.48079 50.7985 5.48079 50.8211 5.48079C51.9432 5.43792 51.7482 5.57794 51.7482 6.4152C51.7538 9.54708 51.7482 12.679 51.7482 15.8108C51.7482 16.3195 51.6945 16.3566 51.2055 16.2738C51.0359 16.2452 50.8437 16.2366 50.6826 16.2852C50.3717 16.3795 50.2983 16.2252 50.2926 15.9766C50.2841 15.7194 50.2926 15.4594 50.2926 15.2022C50.2926 13.7477 50.2926 12.2932 50.2926 10.8387H50.2954H50.2983Z" fill="white"/>
<path d="M17.2663 10.8758C17.2663 9.22418 17.2663 7.56965 17.2663 5.91799C17.2663 5.47507 17.272 5.47507 17.7242 5.47793C17.9475 5.47793 18.1708 5.49221 18.3912 5.46935C18.6428 5.44364 18.7332 5.55222 18.7332 5.78654C18.7304 6.12659 18.7276 6.46664 18.7276 6.80669C18.7276 9.81855 18.7276 12.8304 18.7276 15.8451C18.7276 16.2337 18.6145 16.3195 18.2273 16.268C18.0436 16.2452 17.8514 16.2452 17.6649 16.2623C17.3596 16.2909 17.255 16.1795 17.2579 15.868C17.272 14.2049 17.2635 12.5389 17.2635 10.8758H17.2663Z" fill="white"/>
<path d="M35.2252 10.6272C35.2252 12.2103 35.2167 13.7934 35.2336 15.3765C35.2365 15.7022 35.146 15.808 34.8238 15.7708C34.5581 15.7422 34.284 15.7594 34.0155 15.7708C33.8629 15.7765 33.7978 15.7165 33.812 15.5651C33.8176 15.5079 33.8148 15.4479 33.8148 15.3879C33.8148 12.2217 33.8176 9.05558 33.8035 5.88655C33.8035 5.54936 33.8798 5.41791 34.2275 5.47506C34.5468 5.5265 34.9623 5.32933 35.1686 5.55508C35.3552 5.75796 35.2223 6.16088 35.2223 6.47521C35.228 7.85826 35.2223 9.24417 35.2223 10.6272H35.2252Z" fill="white"/>
<path d="M68.1779 10.6272C68.1779 12.2446 68.1723 13.862 68.1836 15.4794C68.1836 15.7108 68.1214 15.7908 67.8868 15.7737C67.6183 15.7537 67.347 15.748 67.0785 15.7737C66.7987 15.7994 66.7534 15.6851 66.7534 15.4336C66.7647 13.8877 66.7619 12.3389 66.7619 10.793C66.7619 9.12702 66.7676 7.46393 66.7563 5.79797C66.7563 5.53794 66.8128 5.43792 67.0898 5.47221C67.3215 5.50079 67.559 5.49507 67.7907 5.47221C68.0903 5.44078 68.1779 5.55222 68.1751 5.84655C68.1638 7.44106 68.1695 9.03558 68.1695 10.6301C68.1695 10.6301 68.1723 10.6301 68.1751 10.6301L68.1779 10.6272Z" fill="white"/>
</g>
<defs>
<clipPath id="clip0_30_78">
<rect width="84" height="20" fill="white"/>
</clipPath>
</defs>
</svg>
